<svg width="1092.2" height="70.6826" saveAspectRatio="xMinYMin meet" viewBox="-1e-07 -35.3413 1092 71" xmlns="http://www.w3.org/2000/svg" version="1.1">

<g fill = "none" stroke="rgb(0, 0, 0)" stroke-linecap="round" stroke-linejoin="round" stroke-width="1.000183">
  <path d="M98.98 -1.7 A1.7 1.7 0 0 0 98.98 1.7" />  <path id= "2" d=" M 98.98 1.7 L 103.58 1.7 " />
  <path d="M103.58 1.7 A1.7 1.7 0 0 0 105.28 3.37954e-12" />  <path d="M105.28 3.37954e-12 A1.7 1.7 0 0 0 103.58 -1.7" />  <path id= "5" d=" M 103.58 -1.7 L 98.98 -1.7 " />
  <path d="M287.7 -1.7 A1.7 1.7 0 0 0 287.7 1.7" />  <path id= "7" d=" M 287.7 1.7 L 292.3 1.7 " />
  <path d="M292.3 1.7 A1.7 1.7 0 0 0 294 3.37996e-12" />  <path d="M294 3.37996e-12 A1.7 1.7 0 0 0 292.3 -1.7" />  <path id= "10" d=" M 292.3 -1.7 L 287.7 -1.7 " />
  <path d="M340.98 -1.7 A1.7 1.7 0 0 0 340.98 1.7" />  <path id= "12" d=" M 340.98 1.7 L 345.58 1.7 " />
  <path d="M345.58 1.7 A1.7 1.7 0 0 0 347.28 1.68966e-12" />  <path d="M347.28 1.68966e-12 A1.7 1.7 0 0 0 345.58 -1.7" />  <path id= "15" d=" M 345.58 -1.7 L 340.98 -1.7 " />
  <path d="M771.7 -1.7 A1.7 1.7 0 0 0 771.7 1.7" />  <path id= "17" d=" M 771.7 1.7 L 776.3 1.7 " />
  <path d="M776.3 1.7 A1.7 1.7 0 0 0 778 2.0819e-16" />  <path d="M778 2.0819e-16 A1.7 1.7 0 0 0 776.3 -1.7" />  <path id= "20" d=" M 776.3 -1.7 L 771.7 -1.7 " />
  <path d="M582.98 -1.7 A1.7 1.7 0 0 0 582.98 1.7" />  <path id= "22" d=" M 582.98 1.7 L 587.58 1.7 " />
  <path d="M587.58 1.7 A1.7 1.7 0 0 0 589.28 -2.14313e-16" />  <path d="M589.28 -2.14313e-16 A1.7 1.7 0 0 0 587.58 -1.7" />  <path id= "25" d=" M 587.58 -1.7 L 582.98 -1.7 " />
  <path d="M1017.75 2.14313e-16 A1.75 1.75 0 0 0 1014.25 -4.28626e-16" />  <path d="M1014.25 -0 A1.75 1.75 0 0 0 1017.75 2.14313e-16" />  <path d="M529.7 -1.7 A1.7 1.7 0 0 0 529.7 1.7" />  <path id= "29" d=" M 529.7 1.7 L 534.3 1.7 " />
  <path d="M534.3 1.7 A1.7 1.7 0 0 0 536 1.69009e-12" />  <path d="M536 1.69009e-12 A1.7 1.7 0 0 0 534.3 -1.7" />  <path id= "32" d=" M 534.3 -1.7 L 529.7 -1.7 " />
  <path d="M829.58 1.7 A1.7 1.7 0 0 0 831.28 1.71809e-15" />  <path d="M831.28 -1.30171e-15 A1.7 1.7 0 0 0 829.58 -1.7" />  <path id= "35" d=" M 829.58 -1.7 L 824.98 -1.7 " />
  <path d="M824.98 -1.7 A1.7 1.7 0 0 0 824.98 1.7" />  <path id= "37" d=" M 824.98 1.7 L 829.58 1.7 " />
  <path d="M625.662 6.35 A6.35 6.35 0 0 1 619.312 1.0412e-14" />  <path id= "39" d=" M 739.962 6.35 L 625.662 6.35 " />
  <path d="M739.962 -6.35 A6.35 6.35 0 1 1 739.962 6.35" />  <path id= "41" d=" M 625.662 -6.35 L 739.962 -6.35 " />
  <path d="M619.312 8.85674e-15 A6.35 6.35 0 0 1 625.662 -6.35" />  <path d="M867.662 6.35 A6.35 6.35 0 0 1 861.312 1.97453e-14" />  <path id= "44" d=" M 981.962 6.35 L 867.662 6.35 " />
  <path d="M981.962 -6.35 A6.35 6.35 0 1 1 981.962 6.35" />  <path id= "46" d=" M 867.662 -6.35 L 981.962 -6.35 " />
  <path d="M861.312 1.819e-14 A6.35 6.35 0 0 1 867.662 -6.35" />  <path id= "48" d=" M 17.2864 7.14375 L 17.2864 -7.14375 " />
  <path id= "49" d=" M 29.9864 7.14375 L 17.2864 7.14375 " />
  <path id= "50" d=" M 29.9864 -7.14375 L 29.9864 7.14375 " />
  <path id= "51" d=" M 17.2864 -7.14375 L 29.9864 -7.14375 " />
  <path d="M383.662 6.35 A6.35 6.35 0 0 1 377.312 1.07876e-15" />  <path id= "53" d=" M 497.962 6.35 L 383.662 6.35 " />
  <path d="M497.962 -6.35 A6.35 6.35 0 1 1 497.962 6.35" />  <path id= "55" d=" M 383.662 -6.35 L 497.962 -6.35 " />
  <path d="M377.312 -4.76543e-16 A6.35 6.35 0 0 1 383.662 -6.35" />  <path d="M141.662 6.35 A6.35 6.35 0 0 1 135.312 -8.25452e-15" />  <path id= "58" d=" M 255.962 6.35 L 141.662 6.35 " />
  <path d="M255.962 -6.35 A6.35 6.35 0 1 1 255.962 6.35" />  <path id= "60" d=" M 141.662 -6.35 L 255.962 -6.35 " />
  <path d="M135.312 -9.80982e-15 A6.35 6.35 0 0 1 141.662 -6.35" />  <path id= "62" d=" M 1092.2 -15.8623 L 1092.2 15.8623 " />
  <path id= "63" d=" M 1092.2 19.479 L 1092.2 15.8623 " />
  <path id= "64" d=" M 1092.2 19.479 L 1092.2 28.9913 " />
  <path d="M1092.2 28.9913 A6.35 6.35 0 0 1 1085.85 35.3413" />  <path id= "66" d=" M 1085.85 35.3413 L 6.35 35.3413 " />
  <path d="M6.35 35.3413 A6.35 6.35 0 0 1 2.66454e-15 28.9913" />  <path id= "68" d=" M 0 28.9913 L 0 19.479 " />
  <path id= "69" d=" M 1.13687e-13 15.8623 L 1.13687e-13 19.479 " />
  <path id= "70" d=" M 0 15.8623 L 0 -15.8623 " />
  <path id= "71" d=" M 2.27374e-13 -19.479 L 2.27374e-13 -15.8623 " />
  <path id= "72" d=" M 0 -19.479 L 0 -28.9913 " />
  <path d="M-1.77636e-15 -28.9913 A6.35 6.35 0 0 1 6.35 -35.3413" />  <path id= "74" d=" M 6.35 -35.3413 L 1085.85 -35.3413 " />
  <path d="M1085.85 -35.3413 A6.35 6.35 0 0 1 1092.2 -28.9913" />  <path id= "76" d=" M 1092.2 -28.9913 L 1092.2 -19.479 " />
  <path id= "77" d=" M 1092.2 -15.8623 L 1092.2 -19.479 " />
  <path d="M1078.02 23.9693 A3.302 3.302 0 0 1 1078.02 30.5733" />  <path d="M1078.02 30.5733 A3.302 3.302 0 0 1 1078.02 23.9693" />  <path d="M682.812 23.9693 A3.302 3.302 0 0 1 682.812 30.5733" />  <path d="M682.812 30.5733 A3.302 3.302 0 0 1 682.812 23.9693" />  <path d="M440.812 23.9693 A3.302 3.302 0 0 1 440.812 30.5733" />  <path d="M440.812 30.5733 A3.302 3.302 0 0 1 440.812 23.9693" />  <path d="M198.812 23.9693 A3.302 3.302 0 0 1 198.812 30.5733" />  <path d="M198.812 30.5733 A3.302 3.302 0 0 1 198.812 23.9693" />  <path d="M924.812 23.9693 A3.302 3.302 0 0 1 924.812 30.5733" />  <path d="M924.812 30.5733 A3.302 3.302 0 0 1 924.812 23.9693" />  <path d="M861.312 23.9693 A3.302 3.302 0 0 1 861.312 30.5733" />  <path d="M861.312 30.5733 A3.302 3.302 0 0 1 861.312 23.9693" />  <path d="M619.312 23.9693 A3.302 3.302 0 0 1 619.312 30.5733" />  <path d="M619.312 30.5733 A3.302 3.302 0 0 1 619.312 23.9693" />  <path d="M377.312 23.9693 A3.302 3.302 0 0 1 377.312 30.5733" />  <path d="M377.312 30.5733 A3.302 3.302 0 0 1 377.312 23.9693" />  <path d="M135.312 23.9693 A3.302 3.302 0 0 1 135.312 30.5733" />  <path d="M135.312 30.5733 A3.302 3.302 0 0 1 135.312 23.9693" />  <path d="M800.64 23.9693 A3.302 3.302 0 0 1 800.64 30.5733" />  <path d="M800.64 30.5733 A3.302 3.302 0 0 1 800.64 23.9693" />  <path d="M558.64 23.9693 A3.302 3.302 0 0 1 558.64 30.5733" />  <path d="M558.64 30.5733 A3.302 3.302 0 0 1 558.64 23.9693" />  <path d="M316.64 23.9693 A3.302 3.302 0 0 1 316.64 30.5733" />  <path d="M316.64 30.5733 A3.302 3.302 0 0 1 316.64 23.9693" />  <path d="M1078.02 -23.9693 A3.302 3.302 0 0 0 1078.02 -30.5733" />  <path d="M1078.02 -30.5733 A3.302 3.302 0 0 0 1078.02 -23.9693" />  <path d="M682.812 -23.9693 A3.302 3.302 0 0 0 682.812 -30.5733" />  <path d="M682.812 -30.5733 A3.302 3.302 0 0 0 682.812 -23.9693" />  <path d="M440.812 -23.9693 A3.302 3.302 0 0 0 440.812 -30.5733" />  <path d="M440.812 -30.5733 A3.302 3.302 0 0 0 440.812 -23.9693" />  <path d="M198.812 -23.9693 A3.302 3.302 0 0 0 198.812 -30.5733" />  <path d="M198.812 -30.5733 A3.302 3.302 0 0 0 198.812 -23.9693" />  <path d="M924.812 -23.9693 A3.302 3.302 0 0 0 924.812 -30.5733" />  <path d="M924.812 -30.5733 A3.302 3.302 0 0 0 924.812 -23.9693" />  <path d="M861.312 -23.9693 A3.302 3.302 0 0 0 861.312 -30.5733" />  <path d="M861.312 -30.5733 A3.302 3.302 0 0 0 861.312 -23.9693" />  <path d="M619.312 -23.9693 A3.302 3.302 0 0 0 619.312 -30.5733" />  <path d="M619.312 -30.5733 A3.302 3.302 0 0 0 619.312 -23.9693" />  <path d="M377.312 -23.9693 A3.302 3.302 0 0 0 377.312 -30.5733" />  <path d="M377.312 -30.5733 A3.302 3.302 0 0 0 377.312 -23.9693" />  <path d="M135.312 -23.9693 A3.302 3.302 0 0 0 135.312 -30.5733" />  <path d="M135.312 -30.5733 A3.302 3.302 0 0 0 135.312 -23.9693" />  <path d="M800.64 -23.9693 A3.302 3.302 0 0 0 800.64 -30.5733" />  <path d="M800.64 -30.5733 A3.302 3.302 0 0 0 800.64 -23.9693" />  <path d="M558.64 -23.9693 A3.302 3.302 0 0 0 558.64 -30.5733" />  <path d="M558.64 -30.5733 A3.302 3.302 0 0 0 558.64 -23.9693" />  <path d="M316.64 -23.9693 A3.302 3.302 0 0 0 316.64 -30.5733" />  <path d="M316.64 -30.5733 A3.302 3.302 0 0 0 316.64 -23.9693" />  <path d="M98.98 -1.7 A1.7 1.7 0 0 0 98.98 1.7" />  <path id= "127" d=" M 98.98 1.7 L 103.58 1.7 " />
  <path d="M103.58 1.7 A1.7 1.7 0 0 0 105.28 3.37954e-12" />  <path d="M105.28 3.37954e-12 A1.7 1.7 0 0 0 103.58 -1.7" />  <path id= "130" d=" M 103.58 -1.7 L 98.98 -1.7 " />
  <path d="M287.7 -1.7 A1.7 1.7 0 0 0 287.7 1.7" />  <path id= "132" d=" M 287.7 1.7 L 292.3 1.7 " />
  <path d="M292.3 1.7 A1.7 1.7 0 0 0 294 3.37996e-12" />  <path d="M294 3.37996e-12 A1.7 1.7 0 0 0 292.3 -1.7" />  <path id= "135" d=" M 292.3 -1.7 L 287.7 -1.7 " />
  <path d="M340.98 -1.7 A1.7 1.7 0 0 0 340.98 1.7" />  <path id= "137" d=" M 340.98 1.7 L 345.58 1.7 " />
  <path d="M345.58 1.7 A1.7 1.7 0 0 0 347.28 1.68966e-12" />  <path d="M347.28 1.68966e-12 A1.7 1.7 0 0 0 345.58 -1.7" />  <path id= "140" d=" M 345.58 -1.7 L 340.98 -1.7 " />
  <path d="M771.7 -1.7 A1.7 1.7 0 0 0 771.7 1.7" />  <path id= "142" d=" M 771.7 1.7 L 776.3 1.7 " />
  <path d="M776.3 1.7 A1.7 1.7 0 0 0 778 2.0819e-16" />  <path d="M778 2.0819e-16 A1.7 1.7 0 0 0 776.3 -1.7" />  <path id= "145" d=" M 776.3 -1.7 L 771.7 -1.7 " />
  <path d="M582.98 -1.7 A1.7 1.7 0 0 0 582.98 1.7" />  <path id= "147" d=" M 582.98 1.7 L 587.58 1.7 " />
  <path d="M587.58 1.7 A1.7 1.7 0 0 0 589.28 -2.14313e-16" />  <path d="M589.28 -2.14313e-16 A1.7 1.7 0 0 0 587.58 -1.7" />  <path id= "150" d=" M 587.58 -1.7 L 582.98 -1.7 " />
  <path d="M1017.75 2.14313e-16 A1.75 1.75 0 0 0 1014.25 -4.28626e-16" />  <path d="M1014.25 -0 A1.75 1.75 0 0 0 1017.75 2.14313e-16" />  <path d="M529.7 -1.7 A1.7 1.7 0 0 0 529.7 1.7" />  <path id= "154" d=" M 529.7 1.7 L 534.3 1.7 " />
  <path d="M534.3 1.7 A1.7 1.7 0 0 0 536 1.69009e-12" />  <path d="M536 1.69009e-12 A1.7 1.7 0 0 0 534.3 -1.7" />  <path id= "157" d=" M 534.3 -1.7 L 529.7 -1.7 " />
  <path d="M829.58 1.7 A1.7 1.7 0 0 0 831.28 1.71809e-15" />  <path d="M831.28 -1.30171e-15 A1.7 1.7 0 0 0 829.58 -1.7" />  <path id= "160" d=" M 829.58 -1.7 L 824.98 -1.7 " />
  <path d="M824.98 -1.7 A1.7 1.7 0 0 0 824.98 1.7" />  <path id= "162" d=" M 824.98 1.7 L 829.58 1.7 " />
  <path d="M625.662 6.35 A6.35 6.35 0 0 1 619.312 1.0412e-14" />  <path id= "164" d=" M 739.962 6.35 L 625.662 6.35 " />
  <path d="M739.962 -6.35 A6.35 6.35 0 1 1 739.962 6.35" />  <path id= "166" d=" M 625.662 -6.35 L 739.962 -6.35 " />
  <path d="M619.312 8.85674e-15 A6.35 6.35 0 0 1 625.662 -6.35" />  <path d="M867.662 6.35 A6.35 6.35 0 0 1 861.312 1.97453e-14" />  <path id= "169" d=" M 981.962 6.35 L 867.662 6.35 " />
  <path d="M981.962 -6.35 A6.35 6.35 0 1 1 981.962 6.35" />  <path id= "171" d=" M 867.662 -6.35 L 981.962 -6.35 " />
  <path d="M861.312 1.819e-14 A6.35 6.35 0 0 1 867.662 -6.35" />  <path id= "173" d=" M 17.2864 7.14375 L 17.2864 -7.14375 " />
  <path id= "174" d=" M 29.9864 7.14375 L 17.2864 7.14375 " />
  <path id= "175" d=" M 29.9864 -7.14375 L 29.9864 7.14375 " />
  <path id= "176" d=" M 17.2864 -7.14375 L 29.9864 -7.14375 " />
  <path d="M383.662 6.35 A6.35 6.35 0 0 1 377.312 1.07876e-15" />  <path id= "178" d=" M 497.962 6.35 L 383.662 6.35 " />
  <path d="M497.962 -6.35 A6.35 6.35 0 1 1 497.962 6.35" />  <path id= "180" d=" M 383.662 -6.35 L 497.962 -6.35 " />
  <path d="M377.312 -4.76543e-16 A6.35 6.35 0 0 1 383.662 -6.35" />  <path d="M141.662 6.35 A6.35 6.35 0 0 1 135.312 -8.25452e-15" />  <path id= "183" d=" M 255.962 6.35 L 141.662 6.35 " />
  <path d="M255.962 -6.35 A6.35 6.35 0 1 1 255.962 6.35" />  <path id= "185" d=" M 141.662 -6.35 L 255.962 -6.35 " />
  <path d="M135.312 -9.80982e-15 A6.35 6.35 0 0 1 141.662 -6.35" />  <path id= "187" d=" M 1092.2 -15.8623 L 1092.2 15.8623 " />
  <path id= "188" d=" M 1092.2 15.8623 L 0 15.8623 " />
  <path id= "189" d=" M 0 15.8623 L 0 -15.8623 " />
  <path id= "190" d=" M 0 -15.8623 L 1092.2 -15.8623 " />
  <path d="M1078.02 -23.9693 A3.302 3.302 0 0 0 1078.02 -30.5733" />  <path d="M1078.02 -30.5733 A3.302 3.302 0 0 0 1078.02 -23.9693" />  <path d="M682.812 -23.9693 A3.302 3.302 0 0 0 682.812 -30.5733" />  <path d="M682.812 -30.5733 A3.302 3.302 0 0 0 682.812 -23.9693" />  <path d="M440.812 -23.9693 A3.302 3.302 0 0 0 440.812 -30.5733" />  <path d="M440.812 -30.5733 A3.302 3.302 0 0 0 440.812 -23.9693" />  <path d="M198.812 -23.9693 A3.302 3.302 0 0 0 198.812 -30.5733" />  <path d="M198.812 -30.5733 A3.302 3.302 0 0 0 198.812 -23.9693" />  <path d="M924.812 -23.9693 A3.302 3.302 0 0 0 924.812 -30.5733" />  <path d="M924.812 -30.5733 A3.302 3.302 0 0 0 924.812 -23.9693" />  <path d="M861.312 -23.9693 A3.302 3.302 0 0 0 861.312 -30.5733" />  <path d="M861.312 -30.5733 A3.302 3.302 0 0 0 861.312 -23.9693" />  <path d="M619.312 -23.9693 A3.302 3.302 0 0 0 619.312 -30.5733" />  <path d="M619.312 -30.5733 A3.302 3.302 0 0 0 619.312 -23.9693" />  <path d="M377.312 -23.9693 A3.302 3.302 0 0 0 377.312 -30.5733" />  <path d="M377.312 -30.5733 A3.302 3.302 0 0 0 377.312 -23.9693" />  <path d="M135.312 -23.9693 A3.302 3.302 0 0 0 135.312 -30.5733" />  <path d="M135.312 -30.5733 A3.302 3.302 0 0 0 135.312 -23.9693" />  <path d="M800.64 -23.9693 A3.302 3.302 0 0 0 800.64 -30.5733" />  <path d="M800.64 -30.5733 A3.302 3.302 0 0 0 800.64 -23.9693" />  <path d="M558.64 -23.9693 A3.302 3.302 0 0 0 558.64 -30.5733" />  <path d="M558.64 -30.5733 A3.302 3.302 0 0 0 558.64 -23.9693" />  <path d="M316.64 -23.9693 A3.302 3.302 0 0 0 316.64 -30.5733" />  <path d="M316.64 -30.5733 A3.302 3.302 0 0 0 316.64 -23.9693" />  <path id= "215" d=" M 0 -19.479 L 1092.2 -19.479 " />
  <path id= "216" d=" M 0 -19.479 L 0 -28.9913 " />
  <path d="M-1.77636e-15 -28.9913 A6.35 6.35 0 0 1 6.35 -35.3413" />  <path id= "218" d=" M 6.35 -35.3413 L 1085.85 -35.3413 " />
  <path d="M1085.85 -35.3413 A6.35 6.35 0 0 1 1092.2 -28.9913" />  <path id= "220" d=" M 1092.2 -28.9913 L 1092.2 -19.479 " />
  <path d="M1078.02 23.9693 A3.302 3.302 0 0 1 1078.02 30.5733" />  <path d="M1078.02 30.5733 A3.302 3.302 0 0 1 1078.02 23.9693" />  <path d="M682.812 23.9693 A3.302 3.302 0 0 1 682.812 30.5733" />  <path d="M682.812 30.5733 A3.302 3.302 0 0 1 682.812 23.9693" />  <path d="M440.812 23.9693 A3.302 3.302 0 0 1 440.812 30.5733" />  <path d="M440.812 30.5733 A3.302 3.302 0 0 1 440.812 23.9693" />  <path d="M198.812 23.9693 A3.302 3.302 0 0 1 198.812 30.5733" />  <path d="M198.812 30.5733 A3.302 3.302 0 0 1 198.812 23.9693" />  <path d="M924.812 23.9693 A3.302 3.302 0 0 1 924.812 30.5733" />  <path d="M924.812 30.5733 A3.302 3.302 0 0 1 924.812 23.9693" />  <path d="M861.312 23.9693 A3.302 3.302 0 0 1 861.312 30.5733" />  <path d="M861.312 30.5733 A3.302 3.302 0 0 1 861.312 23.9693" />  <path d="M619.312 23.9693 A3.302 3.302 0 0 1 619.312 30.5733" />  <path d="M619.312 30.5733 A3.302 3.302 0 0 1 619.312 23.9693" />  <path d="M377.312 23.9693 A3.302 3.302 0 0 1 377.312 30.5733" />  <path d="M377.312 30.5733 A3.302 3.302 0 0 1 377.312 23.9693" />  <path d="M135.312 23.9693 A3.302 3.302 0 0 1 135.312 30.5733" />  <path d="M135.312 30.5733 A3.302 3.302 0 0 1 135.312 23.9693" />  <path d="M800.64 23.9693 A3.302 3.302 0 0 1 800.64 30.5733" />  <path d="M800.64 30.5733 A3.302 3.302 0 0 1 800.64 23.9693" />  <path d="M558.64 23.9693 A3.302 3.302 0 0 1 558.64 30.5733" />  <path d="M558.64 30.5733 A3.302 3.302 0 0 1 558.64 23.9693" />  <path d="M316.64 23.9693 A3.302 3.302 0 0 1 316.64 30.5733" />  <path d="M316.64 30.5733 A3.302 3.302 0 0 1 316.64 23.9693" />  <path id= "245" d=" M 1092.2 19.479 L 0 19.479 " />
  <path id= "246" d=" M 1092.2 19.479 L 1092.2 28.9913 " />
  <path d="M1092.2 28.9913 A6.35 6.35 0 0 1 1085.85 35.3413" />  <path id= "248" d=" M 1085.85 35.3413 L 6.35 35.3413 " />
  <path d="M6.35 35.3413 A6.35 6.35 0 0 1 2.66454e-15 28.9913" />  <path id= "250" d=" M 0 28.9913 L 0 19.479 " />
  <path id= "251" d=" M 1092.2 -15.8623 L 1092.2 -19.479 " />
  <path id= "252" d=" M 1.36779e-13 -15.8623 L 1092.2 -15.8623 " />
  <path id= "253" d=" M 2.27374e-13 -19.479 L 2.27374e-13 -15.8623 " />
  <path id= "254" d=" M 1.36779e-13 -19.479 L 1092.2 -19.479 " />
  <path id= "255" d=" M 1.13687e-13 15.8623 L 1.13687e-13 19.479 " />
  <path id= "256" d=" M 1092.2 15.8623 L 2.30926e-14 15.8623 " />
  <path id= "257" d=" M 1092.2 19.479 L 1092.2 15.8623 " />
  <path id= "258" d=" M 1092.2 19.479 L 2.30926e-14 19.479 " />
  <path id= "259" d=" M 2.27374e-13 -17.6707 L 1092.2 -17.6707 " />
  <path id= "260" d=" M 1092.2 17.6707 L 0 17.6707 " />
</g>


</svg>
