999
********************************************
999
*** DXF file produced by OCCT DXFRW 2024.2dev
999
*** Date: 2025-10-24T17:46:10
999
********************************************
  0
SECTION
  2
HEADER
  9
$ACADVER
  1
AC1014
  9
$HANDSEED
  5
250
  9
$INSUNITS
 70
4
  9
$MEASUREMENT
 70
1
  0
ENDSEC
  0
SECTION
  2
TABLES
  0
TABLE
  2
VIEW
  5
65
100
AcDbSymbolTable
 70
   0
  0
ENDTAB
  0
TABLE
  2
UCS
  5
66
100
AcDbSymbolTable
 70
   0
  0
ENDTAB
  0
TABLE
  2
APPID
  5
67
100
AcDbSymbolTable
 70
   0
  0
APPID
  5
68
100
AcDbSymbolTableRecord
100
AcDbRegAppTableRecord
  2
ACAD
 70
   0
  0
ENDTAB
  0
TABLE
  2
BLOCK_RECORD
  5
69
100
AcDbSymbolTable
 70
   0
  0
BLOCK_RECORD
  5
6A
100
AcDbSymbolTableRecord
100
AcDbBlockTableRecord
  2
*MODEL_SPACE
  0
BLOCK_RECORD
  5
6B
100
AcDbSymbolTableRecord
100
AcDbBlockTableRecord
  2
*PAPER_SPACE
  0
ENDTAB
  0
TABLE
  2
LTYPE
  5
6C
100
AcDbSymbolTable
 70
   0
  0
LTYPE
  5
6D
100
AcDbSymbolTableRecord
100
AcDbLinetypeTableRecord
  2
BYBLOCK
 70
   0
  3

 72
  65
 73
   0
 40
0.0
  0
LTYPE
  5
6E
100
AcDbSymbolTableRecord
100
AcDbLinetypeTableRecord
  2
BYLAYER
 70
   0
  3

 72
  65
 73
   0
 40
0.0
  0
LTYPE
  5
6F
100
AcDbSymbolTableRecord
100
AcDbLinetypeTableRecord
  2
CONTINUOUS
 70
   0
  3
Solid line
 72
  65
 73
   0
 40
0.0
  0
LTYPE
  5
FA
100
AcDbSymbolTableRecord
100
AcDbLinetypeTableRecord
  2
DASHED
 70
   0
  3
_ _ _ _ _ _ _ _ _ _ _ _ _ _ _ _ _
 72
  65
 73
   2
 40
1.0
 49
24.14854199999999551096
 74
   0
 49
-11.89405799999999757688
 74
   0
  0
ENDTAB
  0
TABLE
  2
VPORT
  5
70
100
AcDbSymbolTable
 70
   0
  0
ENDTAB
  0
TABLE
  2
DIMSTYLE
  5
71
100
AcDbSymbolTable
 70
   0
  0
ENDTAB
  0
TABLE
  2
LAYER
  5
72
100
AcDbSymbolTable
 70
   0
  0
LAYER
  5
73
100
AcDbSymbolTableRecord
100
AcDbLayerTableRecord
  2
0
 70
   0
 62
   7
 61
   0
  6
CONTINUOUS
  0
LAYER
  5
F8
100
AcDbSymbolTableRecord
100
AcDbLayerTableRecord
  2
FLAT_PATTERN
 70
   0
 62
   7
 61
   0
  6
CONTINUOUS
  0
LAYER
  5
F9
100
AcDbSymbolTableRecord
100
AcDbLayerTableRecord
  2
FOLD_LINES
 70
   0
 62
   4
 61
   0
  6
DASHED
  0
ENDTAB
  0
TABLE
  2
STYLE
  5
74
100
AcDbSymbolTable
 70
   0
  0
ENDTAB
  0
ENDSEC
  0
SECTION
  2
BLOCKS
  0
BLOCK
  5
75
100
AcDbEntity
100
AcDbBlockBegin
  2
*MODEL_SPACE
 70
   0
 10
0.0
 20
0.0
 30
0.0
  3
*MODEL_SPACE
  1

  0
ENDBLK
  5
76
100
AcDbEntity
100
AcDbBlockEnd
  0
BLOCK
  5
77
100
AcDbEntity
100
AcDbBlockBegin
  2
*PAPER_SPACE
 70
   0
 10
0.0
 20
0.0
 30
0.0
  3
*PAPER_SPACE
  1

  0
ENDBLK
  5
78
100
AcDbEntity
100
AcDbBlockEnd
  0
ENDSEC
  0
SECTION
  2
ENTITIES
  0
ARC
  5
79
100
AcDbEntity
  8
FLAT_PATTERN
 62
   0
100
AcDbCircle
 10
98.98000551799989921165
 20
-0.00000000000338017644
 30
0.0
 40
1.70000002899661772915
100
AcDbArc
 50
450.0
 51
630.0
  0
LINE
  5
7A
100
AcDbEntity
  8
FLAT_PATTERN
 62
   0
100
AcDbLine
 10
98.98000551799989921165
 20
-1.70000002899662017164
 30
0.0
 11
103.58000546199995994812
 21
-1.70000002899662017164
 31
0.0
  0
ARC
  5
7B
100
AcDbEntity
  8
FLAT_PATTERN
 62
   0
100
AcDbCircle
 10
103.58000546199995994812
 20
-0.00000000000337933143
 30
0.0
 40
1.70000002899661772915
100
AcDbArc
 50
270.0
 51
360.0
  0
ARC
  5
7C
100
AcDbEntity
  8
FLAT_PATTERN
 62
   0
100
AcDbCircle
 10
103.58000546199995994812
 20
-0.00000000000337933143
 30
0.0
 40
1.70000002899661772915
100
AcDbArc
 50
360.0
 51
450.0
  0
LINE
  5
7D
100
AcDbEntity
  8
FLAT_PATTERN
 62
   0
100
AcDbLine
 10
103.58000546199995994812
 20
1.70000002899662017164
 30
0.0
 11
98.98000551799989921165
 21
1.70000002899662017164
 31
0.0
  0
ARC
  5
7E
100
AcDbEntity
  8
FLAT_PATTERN
 62
   0
100
AcDbCircle
 10
287.70000712799992470536
 20
-0.00000000000337975394
 30
0.0
 40
1.70000002899661772915
100
AcDbArc
 50
450.0
 51
630.0
  0
LINE
  5
7F
100
AcDbEntity
  8
FLAT_PATTERN
 62
   0
100
AcDbLine
 10
287.70000712799992470536
 20
-1.70000002899662017164
 30
0.0
 11
292.3000070720000280744
 21
-1.70000002899662039368
 31
0.0
  0
ARC
  5
80
100
AcDbEntity
  8
FLAT_PATTERN
 62
   0
100
AcDbCircle
 10
292.3000070720000280744
 20
-0.00000000000337975394
 30
0.0
 40
1.70000002899661772915
100
AcDbArc
 50
270.0
 51
360.0
  0
ARC
  5
81
100
AcDbEntity
  8
FLAT_PATTERN
 62
   0
100
AcDbCircle
 10
292.3000070720000280744
 20
-0.00000000000337975394
 30
0.0
 40
1.70000002899661772915
100
AcDbArc
 50
360.0
 51
450.0
  0
LINE
  5
82
100
AcDbEntity
  8
FLAT_PATTERN
 62
   0
100
AcDbLine
 10
292.3000070720000280744
 20
1.70000002899662039368
 30
0.0
 11
287.70000712799992470536
 21
1.70000002899662017164
 31
0.0
  0
ARC
  5
83
100
AcDbEntity
  8
FLAT_PATTERN
 62
   0
100
AcDbCircle
 10
340.98000551799987078994
 20
-0.00000000000169029947
 30
0.0
 40
1.70000002899828284164
100
AcDbArc
 50
450.0
 51
630.0
  0
LINE
  5
84
100
AcDbEntity
  8
FLAT_PATTERN
 62
   0
100
AcDbLine
 10
340.98000551799987078994
 20
-1.70000002899830926495
 30
0.0
 11
345.58000546199997415897
 21
-1.70000002899830926495
 31
0.0
  0
ARC
  5
85
100
AcDbEntity
  8
FLAT_PATTERN
 62
   0
100
AcDbCircle
 10
345.58000546199997415897
 20
-0.00000000000168945446
 30
0.0
 40
1.70000002899828284164
100
AcDbArc
 50
270.0
 51
360.0
  0
ARC
  5
86
100
AcDbEntity
  8
FLAT_PATTERN
 62
   0
100
AcDbCircle
 10
345.58000546199997415897
 20
-0.00000000000168945446
 30
0.0
 40
1.70000002899828284164
100
AcDbArc
 50
360.0
 51
450.0
  0
LINE
  5
87
100
AcDbEntity
  8
FLAT_PATTERN
 62
   0
100
AcDbLine
 10
345.58000546199997415897
 20
1.70000002899830926495
 30
0.0
 11
340.98000551799987078994
 21
1.70000002899830926495
 31
0.0
  0
ARC
  5
88
100
AcDbEntity
  8
FLAT_PATTERN
 62
   0
100
AcDbCircle
 10
771.70000712799981101853
 20
0.0
 30
0.0
 40
1.70000002899994839822
100
AcDbArc
 50
450.0
 51
630.0
  0
LINE
  5
89
100
AcDbEntity
  8
FLAT_PATTERN
 62
   0
100
AcDbLine
 10
771.70000712799981101853
 20
-1.70000002899999991257
 30
0.0
 11
776.30000707199997123098
 21
-1.70000002899999991257
 31
0.0
  0
ARC
  5
8A
100
AcDbEntity
  8
FLAT_PATTERN
 62
   0
100
AcDbCircle
 10
776.30000707199997123098
 20
-0.0
 30
0.0
 40
1.70000002899994839822
100
AcDbArc
 50
270.0
 51
360.0
  0
ARC
  5
8B
100
AcDbEntity
  8
FLAT_PATTERN
 62
   0
100
AcDbCircle
 10
776.30000707199997123098
 20
-0.0
 30
0.0
 40
1.70000002899994839822
100
AcDbArc
 50
360.0
 51
450.0
  0
LINE
  5
8C
100
AcDbEntity
  8
FLAT_PATTERN
 62
   0
100
AcDbLine
 10
776.30000707199997123098
 20
1.70000002899999991257
 30
0.0
 11
771.70000712799981101853
 21
1.70000002899999991257
 31
0.0
  0
ARC
  5
8D
100
AcDbEntity
  8
FLAT_PATTERN
 62
   0
100
AcDbCircle
 10
582.98000551799987078994
 20
-0.0000000000000004225
 30
0.0
 40
1.70000002899994839822
100
AcDbArc
 50
450.0
 51
630.0
  0
LINE
  5
8E
100
AcDbEntity
  8
FLAT_PATTERN
 62
   0
100
AcDbLine
 10
582.98000551799987078994
 20
-1.70000002900000035666
 30
0.0
 11
587.58000546199991731555
 21
-1.70000002899999946848
 31
0.0
  0
ARC
  5
8F
100
AcDbEntity
  8
FLAT_PATTERN
 62
   0
100
AcDbCircle
 10
587.58000546199991731555
 20
0.0000000000000004225
 30
0.0
 40
1.70000002899994839822
100
AcDbArc
 50
270.0
 51
360.0
  0
ARC
  5
90
100
AcDbEntity
  8
FLAT_PATTERN
 62
   0
100
AcDbCircle
 10
587.58000546199991731555
 20
0.0000000000000004225
 30
0.0
 40
1.70000002899994839822
100
AcDbArc
 50
360.0
 51
450.0
  0
LINE
  5
91
100
AcDbEntity
  8
FLAT_PATTERN
 62
   0
100
AcDbLine
 10
587.58000546199991731555
 20
1.70000002900000035666
 30
0.0
 11
582.98000551799987078994
 21
1.70000002899999946848
 31
0.0
  0
ARC
  5
92
100
AcDbEntity
  8
FLAT_PATTERN
 62
   0
100
AcDbCircle
 10
1016.0
 20
0.0
 30
0.0
 40
1.75000000000014033219
100
AcDbArc
 50
360.0
 51
540.0
  0
ARC
  5
93
100
AcDbEntity
  8
FLAT_PATTERN
 62
   0
100
AcDbCircle
 10
1016.0
 20
0.0
 30
0.0
 40
1.75000000000014033219
100
AcDbArc
 50
180.0
 51
360.0
  0
ARC
  5
94
100
AcDbEntity
  8
FLAT_PATTERN
 62
   0
100
AcDbCircle
 10
529.70000712799981101853
 20
-0.00000000000168987697
 30
0.0
 40
1.70000002899828284164
100
AcDbArc
 50
450.0
 51
630.0
  0
LINE
  5
95
100
AcDbEntity
  8
FLAT_PATTERN
 62
   0
100
AcDbLine
 10
529.70000712799981101853
 20
-1.70000002899831015313
 30
0.0
 11
534.30000707199997123098
 21
-1.70000002899831037517
 31
0.0
  0
ARC
  5
96
100
AcDbEntity
  8
FLAT_PATTERN
 62
   0
100
AcDbCircle
 10
534.30000707199997123098
 20
-0.00000000000168987697
 30
0.0
 40
1.70000002899828284164
100
AcDbArc
 50
270.0
 51
360.0
  0
ARC
  5
97
100
AcDbEntity
  8
FLAT_PATTERN
 62
   0
100
AcDbCircle
 10
534.30000707199997123098
 20
-0.00000000000168987697
 30
0.0
 40
1.70000002899828284164
100
AcDbArc
 50
360.0
 51
450.0
  0
LINE
  5
98
100
AcDbEntity
  8
FLAT_PATTERN
 62
   0
100
AcDbLine
 10
534.30000707199997123098
 20
1.70000002899831037517
 30
0.0
 11
529.70000712799981101853
 21
1.70000002899831015313
 31
0.0
  0
ARC
  5
99
100
AcDbEntity
  8
FLAT_PATTERN
 62
   0
100
AcDbCircle
 10
829.58000546199991731555
 20
0.0
 30
0.0
 40
1.70000002899994839822
100
AcDbArc
 50
269.99999999999232613845
 51
359.99999999999994315658
  0
ARC
  5
9A
100
AcDbEntity
  8
FLAT_PATTERN
 62
   0
100
AcDbCircle
 10
829.58000546199991731555
 20
0.0
 30
0.0
 40
1.70000002899994839822
100
AcDbArc
 50
0.00000000000005088887
 51
90.0000000000076880724
  0
LINE
  5
9B
100
AcDbEntity
  8
FLAT_PATTERN
 62
   0
100
AcDbLine
 10
829.58000546199968994188
 20
1.70000002899999991257
 30
0.0
 11
824.98000551799998447677
 21
1.70000002899999924644
 31
0.0
  0
ARC
  5
9C
100
AcDbEntity
  8
FLAT_PATTERN
 62
   0
100
AcDbCircle
 10
824.98000551799998447677
 20
0.0
 30
0.0
 40
1.70000002899994839822
100
AcDbArc
 50
450.0
 51
630.0
  0
LINE
  5
9D
100
AcDbEntity
  8
FLAT_PATTERN
 62
   0
100
AcDbLine
 10
824.98000551799998447677
 20
-1.70000002899999924644
 30
0.0
 11
829.58000546199968994188
 21
-1.70000002899999991257
 31
0.0
  0
ARC
  5
9E
100
AcDbEntity
  8
FLAT_PATTERN
 62
   0
100
AcDbCircle
 10
-625.66207793675289394741
 20
-0.00000000000000885674
 30
0.0
 40
6.34999999999996678213
210
0.0
220
0.0
230
-1.0
100
AcDbArc
 50
270.0
 51
360.0
  0
LINE
  5
9F
100
AcDbEntity
  8
FLAT_PATTERN
 62
   0
100
AcDbLine
 10
739.96207793675307584635
 20
-6.34999999999990993871
 30
0.0
 11
625.66207793675289394741
 21
-6.34999999999991970867
 31
0.0
  0
ARC
  5
A0
100
AcDbEntity
  8
FLAT_PATTERN
 62
   0
100
AcDbCircle
 10
-739.96207793675307584635
 20
-0.00000000000000185788
 30
0.0
 40
6.34999999999996678213
210
0.0
220
0.0
230
-1.0
100
AcDbArc
 50
89.99999999999077715529
 51
270.0
  0
LINE
  5
A1
100
AcDbEntity
  8
FLAT_PATTERN
 62
   0
100
AcDbLine
 10
625.66207793675289394741
 20
6.35000000000007958079
 30
0.0
 11
739.96207793675205266481
 21
6.35000000000008935075
 31
0.0
  0
ARC
  5
A2
100
AcDbEntity
  8
FLAT_PATTERN
 62
   0
100
AcDbCircle
 10
-625.66207793675289394741
 20
-0.00000000000000885674
 30
0.0
 40
6.34999999999996678213
210
0.0
220
0.0
230
-1.0
100
AcDbArc
 50
0.0
 51
90.0
  0
ARC
  5
A3
100
AcDbEntity
  8
FLAT_PATTERN
 62
   0
100
AcDbCircle
 10
-867.66207793675300763425
 20
-0.00000000000001819001
 30
0.0
 40
6.34999999999996678213
210
0.0
220
0.0
230
-1.0
100
AcDbArc
 50
270.0
 51
360.0
  0
LINE
  5
A4
100
AcDbEntity
  8
FLAT_PATTERN
 62
   0
100
AcDbLine
 10
981.96207793675296215952
 20
-6.34999999999991970867
 30
0.0
 11
867.66207793675300763425
 21
-6.34999999999992947863
 31
0.0
  0
ARC
  5
A5
100
AcDbEntity
  8
FLAT_PATTERN
 62
   0
100
AcDbCircle
 10
-981.96207793675296215952
 20
-0.00000000000001119116
 30
0.0
 40
6.34999999999996678213
210
0.0
220
0.0
230
-1.0
100
AcDbArc
 50
89.99999999999178612597
 51
270.0
  0
LINE
  5
A6
100
AcDbEntity
  8
FLAT_PATTERN
 62
   0
100
AcDbLine
 10
867.66207793675300763425
 20
6.35000000000006981082
 30
0.0
 11
981.96207793675205266481
 21
6.35000000000007958079
 31
0.0
  0
ARC
  5
A7
100
AcDbEntity
  8
FLAT_PATTERN
 62
   0
100
AcDbCircle
 10
-867.66207793675300763425
 20
-0.00000000000001819001
 30
0.0
 40
6.34999999999996678213
210
0.0
220
0.0
230
-1.0
100
AcDbArc
 50
0.0
 51
90.0
  0
LINE
  5
A8
100
AcDbEntity
  8
FLAT_PATTERN
 62
   0
100
AcDbLine
 10
17.28640241613009820298
 20
-7.14375000000000071054
 30
0.0
 11
17.28640241613009820298
 21
7.14375000000000071054
 31
0.0
  0
LINE
  5
A9
100
AcDbEntity
  8
FLAT_PATTERN
 62
   0
100
AcDbLine
 10
29.98640241613010104516
 20
-7.14374999999999982236
 30
0.0
 11
17.28640241613009820298
 21
-7.14375000000000071054
 31
0.0
  0
LINE
  5
AA
100
AcDbEntity
  8
FLAT_PATTERN
 62
   0
100
AcDbLine
 10
29.98640241613009749244
 20
7.14374999999999982236
 30
0.0
 11
29.98640241613010459787
 21
-7.14374999999999982236
 31
0.0
  0
LINE
  5
AB
100
AcDbEntity
  8
FLAT_PATTERN
 62
   0
100
AcDbLine
 10
17.28640241613009820298
 20
7.14374999999999715783
 30
0.0
 11
29.98640241613009749244
 21
7.14374999999999982236
 31
0.0
  0
ARC
  5
AC
100
AcDbEntity
  8
FLAT_PATTERN
 62
   0
100
AcDbCircle
 10
-383.66207793675300763425
 20
0.00000000000000047654
 30
0.0
 40
6.35000000000002184919
210
0.0
220
0.0
230
-1.0
100
AcDbArc
 50
270.0
 51
360.0
  0
LINE
  5
AD
100
AcDbEntity
  8
FLAT_PATTERN
 62
   0
100
AcDbLine
 10
497.96207793675301900294
 20
-6.34999999999990105692
 30
0.0
 11
383.66207793675300763425
 21
-6.34999999999991082689
 31
0.0
  0
ARC
  5
AE
100
AcDbEntity
  8
FLAT_PATTERN
 62
   0
100
AcDbCircle
 10
-497.96207793675301900294
 20
0.0000000000000074754
 30
0.0
 40
6.35000000000002184919
210
0.0
220
0.0
230
-1.0
100
AcDbArc
 50
89.9999999999912745352
 51
270.0
  0
LINE
  5
AF
100
AcDbEntity
  8
FLAT_PATTERN
 62
   0
100
AcDbLine
 10
383.66207793675300763425
 20
6.35000000000008846257
 30
0.0
 11
497.96207793675205266481
 21
6.35000000000009823253
 31
0.0
  0
ARC
  5
B0
100
AcDbEntity
  8
FLAT_PATTERN
 62
   0
100
AcDbCircle
 10
-383.66207793675300763425
 20
0.00000000000000047654
 30
0.0
 40
6.35000000000002184919
210
0.0
220
0.0
230
-1.0
100
AcDbArc
 50
0.0
 51
90.0
  0
ARC
  5
B1
100
AcDbEntity
  8
FLAT_PATTERN
 62
   0
100
AcDbCircle
 10
-141.66207793675300763425
 20
0.00000000000000980982
 30
0.0
 40
6.34999999999999431566
210
0.0
220
0.0
230
-1.0
100
AcDbArc
 50
270.0
 51
360.0
  0
LINE
  5
B2
100
AcDbEntity
  8
FLAT_PATTERN
 62
   0
100
AcDbLine
 10
255.96207793675307584635
 20
-6.34999999999989128696
 30
0.0
 11
141.66207793675300763425
 21
-6.34999999999990105692
 31
0.0
  0
ARC
  5
B3
100
AcDbEntity
  8
FLAT_PATTERN
 62
   0
100
AcDbCircle
 10
-255.96207793675307584635
 20
0.00000000000001680868
 30
0.0
 40
6.34999999999999431566
210
0.0
220
0.0
230
-1.0
100
AcDbArc
 50
89.99999999999103295067
 51
270.0
  0
LINE
  5
B4
100
AcDbEntity
  8
FLAT_PATTERN
 62
   0
100
AcDbLine
 10
141.66207793675300763425
 20
6.35000000000009823253
 30
0.0
 11
255.96207793675208108652
 21
6.3500000000001080025
 31
0.0
  0
ARC
  5
B5
100
AcDbEntity
  8
FLAT_PATTERN
 62
   0
100
AcDbCircle
 10
-141.66207793675300763425
 20
0.00000000000000980982
 30
0.0
 40
6.34999999999999431566
210
0.0
220
0.0
230
-1.0
100
AcDbArc
 50
0.0
 51
90.0
  0
LINE
  5
B6
100
AcDbEntity
  8
FLAT_PATTERN
 62
   0
100
AcDbLine
 10
1092.20000000000004547474
 20
15.86229999999999407123
 30
0.0
 11
1092.20000000000004547474
 21
-15.86229999999999407123
 31
0.0
  0
LINE
  5
B7
100
AcDbEntity
  8
FLAT_PATTERN
 62
   0
100
AcDbLine
 10
1092.20000000000004547474
 20
-19.47901041324579551883
 30
-0.0
 11
1092.20000000000004547474
 21
-15.86229999999999762395
 31
-0.00000000000000018008
  0
LINE
  5
B8
100
AcDbEntity
  8
FLAT_PATTERN
 62
   0
100
AcDbLine
 10
1092.20000000000004547474
 20
-19.47901041324579196612
 30
0.00000000000000242665
 11
1092.20000000000004547474
 21
-28.99131041324579527441
 31
0.00000000000000290027
  0
ARC
  5
B9
100
AcDbEntity
  8
FLAT_PATTERN
 62
   0
100
AcDbCircle
 10
-1085.84999999999990905053
 20
-28.99131041324579172169
 30
0.00000000000000499619
 40
6.35000000000007691625
210
0.0
220
-0.00000000000000004979
230
-1.0
100
AcDbArc
 50
180.0
 51
270.0
  0
LINE
  5
BA
100
AcDbEntity
  8
FLAT_PATTERN
 62
   0
100
AcDbLine
 10
1085.84999999999990905053
 20
-35.34131041324579314278
 30
0.0
 11
6.35000000000013642421
 21
-35.34131041324579314278
 31
0.0
  0
ARC
  5
BB
100
AcDbEntity
  8
FLAT_PATTERN
 62
   0
100
AcDbCircle
 10
-6.34999999999999964473
 20
-28.99131041324579172169
 30
0.00000000000000499619
 40
6.34999999999999698019
210
0.0
220
-0.00000000000000004979
230
-1.0
100
AcDbArc
 50
269.99999999999931787897
 51
360.0
  0
LINE
  5
BC
100
AcDbEntity
  8
FLAT_PATTERN
 62
   0
100
AcDbLine
 10
0.0
 20
-28.99131041324579172169
 30
-0.00000000000000355271
 11
0.0
 21
-19.47901041324579551883
 31
-0.00000000000000402633
  0
LINE
  5
BD
100
AcDbEntity
  8
FLAT_PATTERN
 62
   0
100
AcDbLine
 10
0.00000000000011368684
 20
-15.86229999999999584759
 30
-0.00000000000000018008
 11
0.00000000000011368684
 21
-19.47901041324579551883
 31
0.0
  0
LINE
  5
BE
100
AcDbEntity
  8
FLAT_PATTERN
 62
   0
100
AcDbLine
 10
0.0
 20
-15.86229999999999229487
 30
0.0
 11
0.0
 21
15.86229999999999407123
 31
0.0
  0
LINE
  5
BF
100
AcDbEntity
  8
FLAT_PATTERN
 62
   0
100
AcDbLine
 10
0.00000000000022737368
 20
19.47901041324579196612
 30
0.0
 11
0.00000000000022737368
 21
15.86229999999999229487
 31
-0.00000000000000018008
  0
LINE
  5
C0
100
AcDbEntity
  8
FLAT_PATTERN
 62
   0
100
AcDbLine
 10
0.0
 20
19.47901041324579551883
 30
0.00000000000000242665
 11
0.0
 21
28.99131041324579172169
 31
0.00000000000000290027
  0
ARC
  5
C1
100
AcDbEntity
  8
FLAT_PATTERN
 62
   0
100
AcDbCircle
 10
-6.34999999999999964473
 20
28.99131041324579527441
 30
0.00000000000000499619
 40
6.35000000000000142109
210
0.0
220
0.00000000000000004979
230
-1.0
100
AcDbArc
 50
0.0
 51
90.00000000000072475359
  0
LINE
  5
C2
100
AcDbEntity
  8
FLAT_PATTERN
 62
   0
100
AcDbLine
 10
6.35000000000007958079
 20
35.34131041324580024821
 30
0.0
 11
1085.84999999999990905053
 21
35.34131041324580024821
 31
0.0
  0
ARC
  5
C3
100
AcDbEntity
  8
FLAT_PATTERN
 62
   0
100
AcDbCircle
 10
-1085.84999999999990905053
 20
28.99131041324579527441
 30
0.00000000000000499619
 40
6.35000000000007691625
210
0.0
220
0.00000000000000004979
230
-1.0
100
AcDbArc
 50
90.0
 51
180.0
  0
LINE
  5
C4
100
AcDbEntity
  8
FLAT_PATTERN
 62
   0
100
AcDbLine
 10
1092.20000000000004547474
 20
28.99131041324579527441
 30
-0.00000000000000355271
 11
1092.20000000000004547474
 21
19.47901041324579551883
 31
-0.00000000000000402633
  0
LINE
  5
C5
100
AcDbEntity
  8
FLAT_PATTERN
 62
   0
100
AcDbLine
 10
1092.20000000000027284841
 20
15.86229999999999407123
 30
-0.00000000000000018008
 11
1092.20000000000027284841
 21
19.47901041324579551883
 31
0.0
  0
ARC
  5
C6
100
AcDbEntity
  8
FLAT_PATTERN
 62
   0
100
AcDbCircle
 10
-1078.01999999999998181011
 20
-27.2712986132457828603
 30
0.00000000000000658044
 40
3.30199999999991611332
210
0.0
220
-0.00000000000000011102
230
-1.0
100
AcDbArc
 50
90.0
 51
270.0
  0
ARC
  5
C7
100
AcDbEntity
  8
FLAT_PATTERN
 62
   0
100
AcDbCircle
 10
-1078.01999999999998181011
 20
-27.2712986132457828603
 30
0.00000000000000658044
 40
3.30199999999991611332
210
0.0
220
-0.00000000000000011102
230
-1.0
100
AcDbArc
 50
270.0
 51
450.0
  0
ARC
  5
C8
100
AcDbEntity
  8
FLAT_PATTERN
 62
   0
100
AcDbCircle
 10
-682.81207793675298489688
 20
-27.2712986132457828603
 30
0.00000000000000658044
 40
3.30200000000002669154
210
0.0
220
-0.00000000000000011102
230
-1.0
100
AcDbArc
 50
90.0
 51
270.0
  0
ARC
  5
C9
100
AcDbEntity
  8
FLAT_PATTERN
 62
   0
100
AcDbCircle
 10
-682.81207793675298489688
 20
-27.2712986132457828603
 30
0.00000000000000658044
 40
3.30200000000002669154
210
0.0
220
-0.00000000000000011102
230
-1.0
100
AcDbArc
 50
270.0
 51
450.0
  0
ARC
  5
CA
100
AcDbEntity
  8
FLAT_PATTERN
 62
   0
100
AcDbCircle
 10
-440.8120779367530417403
 20
-27.2712986132457828603
 30
0.00000000000000658044
 40
3.30199999999997162448
210
0.0
220
-0.00000000000000011102
230
-1.0
100
AcDbArc
 50
90.0
 51
270.0
  0
ARC
  5
CB
100
AcDbEntity
  8
FLAT_PATTERN
 62
   0
100
AcDbCircle
 10
-440.8120779367530417403
 20
-27.2712986132457828603
 30
0.00000000000000658044
 40
3.30199999999997162448
210
0.0
220
-0.00000000000000011102
230
-1.0
100
AcDbArc
 50
270.0
 51
450.0
  0
ARC
  5
CC
100
AcDbEntity
  8
FLAT_PATTERN
 62
   0
100
AcDbCircle
 10
-198.8120779367530417403
 20
-27.2712986132457828603
 30
0.00000000000000658044
 40
3.30199999999999915801
210
0.0
220
-0.00000000000000011102
230
-1.0
100
AcDbArc
 50
90.0
 51
270.0
  0
ARC
  5
CD
100
AcDbEntity
  8
FLAT_PATTERN
 62
   0
100
AcDbCircle
 10
-198.8120779367530417403
 20
-27.2712986132457828603
 30
0.00000000000000658044
 40
3.30199999999999915801
210
0.0
220
-0.00000000000000011102
230
-1.0
100
AcDbArc
 50
270.0
 51
450.0
  0
ARC
  5
CE
100
AcDbEntity
  8
FLAT_PATTERN
 62
   0
100
AcDbCircle
 10
-924.81207793675298489688
 20
-27.2712986132457828603
 30
0.00000000000000658044
 40
3.30200000000002669154
210
0.0
220
-0.00000000000000011102
230
-1.0
100
AcDbArc
 50
90.0
 51
270.0
  0
ARC
  5
CF
100
AcDbEntity
  8
FLAT_PATTERN
 62
   0
100
AcDbCircle
 10
-924.81207793675298489688
 20
-27.2712986132457828603
 30
0.00000000000000658044
 40
3.30200000000002669154
210
0.0
220
-0.00000000000000011102
230
-1.0
100
AcDbArc
 50
270.0
 51
450.0
  0
ARC
  5
D0
100
AcDbEntity
  8
FLAT_PATTERN
 62
   0
100
AcDbCircle
 10
-861.31207793675298489688
 20
-27.2712986132457828603
 30
0.00000000000000658044
 40
3.30200000000002669154
210
0.0
220
-0.00000000000000011102
230
-1.0
100
AcDbArc
 50
90.0
 51
270.0
  0
ARC
  5
D1
100
AcDbEntity
  8
FLAT_PATTERN
 62
   0
100
AcDbCircle
 10
-861.31207793675298489688
 20
-27.2712986132457828603
 30
0.00000000000000658044
 40
3.30200000000002669154
210
0.0
220
-0.00000000000000011102
230
-1.0
100
AcDbArc
 50
270.0
 51
450.0
  0
ARC
  5
D2
100
AcDbEntity
  8
FLAT_PATTERN
 62
   0
100
AcDbCircle
 10
-619.31207793675298489688
 20
-27.2712986132457828603
 30
0.00000000000000658044
 40
3.30200000000002669154
210
0.0
220
-0.00000000000000011102
230
-1.0
100
AcDbArc
 50
90.0
 51
270.0
  0
ARC
  5
D3
100
AcDbEntity
  8
FLAT_PATTERN
 62
   0
100
AcDbCircle
 10
-619.31207793675298489688
 20
-27.2712986132457828603
 30
0.00000000000000658044
 40
3.30200000000002669154
210
0.0
220
-0.00000000000000011102
230
-1.0
100
AcDbArc
 50
270.0
 51
450.0
  0
ARC
  5
D4
100
AcDbEntity
  8
FLAT_PATTERN
 62
   0
100
AcDbCircle
 10
-377.31207793675298489688
 20
-27.2712986132457828603
 30
0.00000000000000658044
 40
3.30199999999997162448
210
0.0
220
-0.00000000000000011102
230
-1.0
100
AcDbArc
 50
90.0
 51
270.0
  0
ARC
  5
D5
100
AcDbEntity
  8
FLAT_PATTERN
 62
   0
100
AcDbCircle
 10
-377.31207793675298489688
 20
-27.2712986132457828603
 30
0.00000000000000658044
 40
3.30199999999997162448
210
0.0
220
-0.00000000000000011102
230
-1.0
100
AcDbArc
 50
270.0
 51
450.0
  0
ARC
  5
D6
100
AcDbEntity
  8
FLAT_PATTERN
 62
   0
100
AcDbCircle
 10
-135.31207793675301331859
 20
-27.2712986132457828603
 30
0.00000000000000658044
 40
3.30199999999999915801
210
0.0
220
-0.00000000000000011102
230
-1.0
100
AcDbArc
 50
90.0
 51
270.0
  0
ARC
  5
D7
100
AcDbEntity
  8
FLAT_PATTERN
 62
   0
100
AcDbCircle
 10
-135.31207793675301331859
 20
-27.2712986132457828603
 30
0.00000000000000658044
 40
3.30199999999999915801
210
0.0
220
-0.00000000000000011102
230
-1.0
100
AcDbArc
 50
270.0
 51
450.0
  0
ARC
  5
D8
100
AcDbEntity
  8
FLAT_PATTERN
 62
   0
100
AcDbCircle
 10
-800.64000629499992101046
 20
-27.2712986132457828603
 30
0.00000000000000658044
 40
3.30200000000002669154
210
0.0
220
-0.00000000000000011102
230
-1.0
100
AcDbArc
 50
90.0
 51
270.0
  0
ARC
  5
D9
100
AcDbEntity
  8
FLAT_PATTERN
 62
   0
100
AcDbCircle
 10
-800.64000629499992101046
 20
-27.2712986132457828603
 30
0.00000000000000658044
 40
3.30200000000002669154
210
0.0
220
-0.00000000000000011102
230
-1.0
100
AcDbArc
 50
270.0
 51
450.0
  0
ARC
  5
DA
100
AcDbEntity
  8
FLAT_PATTERN
 62
   0
100
AcDbCircle
 10
-558.64000629499992101046
 20
-27.2712986132457828603
 30
0.00000000000000658044
 40
3.30200000000002669154
210
0.0
220
-0.00000000000000011102
230
-1.0
100
AcDbArc
 50
90.0
 51
270.0
  0
ARC
  5
DB
100
AcDbEntity
  8
FLAT_PATTERN
 62
   0
100
AcDbCircle
 10
-558.64000629499992101046
 20
-27.2712986132457828603
 30
0.00000000000000658044
 40
3.30200000000002669154
210
0.0
220
-0.00000000000000011102
230
-1.0
100
AcDbArc
 50
270.0
 51
450.0
  0
ARC
  5
DC
100
AcDbEntity
  8
FLAT_PATTERN
 62
   0
100
AcDbCircle
 10
-316.64000629499986416704
 20
-27.2712986132457828603
 30
0.00000000000000658044
 40
3.30199999999997162448
210
0.0
220
-0.00000000000000011102
230
-1.0
100
AcDbArc
 50
90.0
 51
270.0
  0
ARC
  5
DD
100
AcDbEntity
  8
FLAT_PATTERN
 62
   0
100
AcDbCircle
 10
-316.64000629499986416704
 20
-27.2712986132457828603
 30
0.00000000000000658044
 40
3.30199999999997162448
210
0.0
220
-0.00000000000000011102
230
-1.0
100
AcDbArc
 50
270.0
 51
450.0
  0
ARC
  5
DE
100
AcDbEntity
  8
FLAT_PATTERN
 62
   0
100
AcDbCircle
 10
1078.01999999999998181011
 20
27.2712986132457828603
 30
-0.00000000000000355271
 40
3.30199999999991611332
100
AcDbArc
 50
-90.0
 51
90.0
  0
ARC
  5
DF
100
AcDbEntity
  8
FLAT_PATTERN
 62
   0
100
AcDbCircle
 10
1078.01999999999998181011
 20
27.2712986132457828603
 30
-0.00000000000000355271
 40
3.30199999999991611332
100
AcDbArc
 50
90.0
 51
270.0
  0
ARC
  5
E0
100
AcDbEntity
  8
FLAT_PATTERN
 62
   0
100
AcDbCircle
 10
682.81207793675298489688
 20
27.2712986132457828603
 30
-0.00000000000000355271
 40
3.30200000000002669154
100
AcDbArc
 50
-90.0
 51
90.0
  0
ARC
  5
E1
100
AcDbEntity
  8
FLAT_PATTERN
 62
   0
100
AcDbCircle
 10
682.81207793675298489688
 20
27.2712986132457828603
 30
-0.00000000000000355271
 40
3.30200000000002669154
100
AcDbArc
 50
90.0
 51
270.0
  0
ARC
  5
E2
100
AcDbEntity
  8
FLAT_PATTERN
 62
   0
100
AcDbCircle
 10
440.8120779367530417403
 20
27.2712986132457828603
 30
-0.00000000000000355271
 40
3.30199999999997162448
100
AcDbArc
 50
-90.0
 51
90.0
  0
ARC
  5
E3
100
AcDbEntity
  8
FLAT_PATTERN
 62
   0
100
AcDbCircle
 10
440.8120779367530417403
 20
27.2712986132457828603
 30
-0.00000000000000355271
 40
3.30199999999997162448
100
AcDbArc
 50
90.0
 51
270.0
  0
ARC
  5
E4
100
AcDbEntity
  8
FLAT_PATTERN
 62
   0
100
AcDbCircle
 10
198.8120779367530417403
 20
27.2712986132457828603
 30
-0.00000000000000355271
 40
3.30199999999999915801
100
AcDbArc
 50
-90.0
 51
90.0
  0
ARC
  5
E5
100
AcDbEntity
  8
FLAT_PATTERN
 62
   0
100
AcDbCircle
 10
198.8120779367530417403
 20
27.2712986132457828603
 30
-0.00000000000000355271
 40
3.30199999999999915801
100
AcDbArc
 50
90.0
 51
270.0
  0
ARC
  5
E6
100
AcDbEntity
  8
FLAT_PATTERN
 62
   0
100
AcDbCircle
 10
924.81207793675298489688
 20
27.2712986132457828603
 30
-0.00000000000000355271
 40
3.30200000000002669154
100
AcDbArc
 50
-90.0
 51
90.0
  0
ARC
  5
E7
100
AcDbEntity
  8
FLAT_PATTERN
 62
   0
100
AcDbCircle
 10
924.81207793675298489688
 20
27.2712986132457828603
 30
-0.00000000000000355271
 40
3.30200000000002669154
100
AcDbArc
 50
90.0
 51
270.0
  0
ARC
  5
E8
100
AcDbEntity
  8
FLAT_PATTERN
 62
   0
100
AcDbCircle
 10
861.31207793675298489688
 20
27.27129861324578996573
 30
-0.00000000000000355271
 40
3.30200000000002669154
100
AcDbArc
 50
-90.0
 51
90.0
  0
ARC
  5
E9
100
AcDbEntity
  8
FLAT_PATTERN
 62
   0
100
AcDbCircle
 10
861.31207793675298489688
 20
27.27129861324578996573
 30
-0.00000000000000355271
 40
3.30200000000002669154
100
AcDbArc
 50
90.0
 51
270.0
  0
ARC
  5
EA
100
AcDbEntity
  8
FLAT_PATTERN
 62
   0
100
AcDbCircle
 10
619.31207793675298489688
 20
27.2712986132457828603
 30
-0.00000000000000355271
 40
3.30200000000002669154
100
AcDbArc
 50
-90.0
 51
90.0
  0
ARC
  5
EB
100
AcDbEntity
  8
FLAT_PATTERN
 62
   0
100
AcDbCircle
 10
619.31207793675298489688
 20
27.2712986132457828603
 30
-0.00000000000000355271
 40
3.30200000000002669154
100
AcDbArc
 50
90.0
 51
270.0
  0
ARC
  5
EC
100
AcDbEntity
  8
FLAT_PATTERN
 62
   0
100
AcDbCircle
 10
377.31207793675298489688
 20
27.2712986132457828603
 30
-0.00000000000000355271
 40
3.30199999999997162448
100
AcDbArc
 50
-90.0
 51
90.0
  0
ARC
  5
ED
100
AcDbEntity
  8
FLAT_PATTERN
 62
   0
100
AcDbCircle
 10
377.31207793675298489688
 20
27.2712986132457828603
 30
-0.00000000000000355271
 40
3.30199999999997162448
100
AcDbArc
 50
90.0
 51
270.0
  0
ARC
  5
EE
100
AcDbEntity
  8
FLAT_PATTERN
 62
   0
100
AcDbCircle
 10
135.31207793675301331859
 20
27.2712986132457828603
 30
-0.00000000000000355271
 40
3.30199999999999915801
100
AcDbArc
 50
-90.0
 51
90.0
  0
ARC
  5
EF
100
AcDbEntity
  8
FLAT_PATTERN
 62
   0
100
AcDbCircle
 10
135.31207793675301331859
 20
27.2712986132457828603
 30
-0.00000000000000355271
 40
3.30199999999999915801
100
AcDbArc
 50
90.0
 51
270.0
  0
ARC
  5
F0
100
AcDbEntity
  8
FLAT_PATTERN
 62
   0
100
AcDbCircle
 10
800.64000629499992101046
 20
27.27129861324578996573
 30
-0.00000000000000355271
 40
3.30200000000002669154
100
AcDbArc
 50
-90.0
 51
90.0
  0
ARC
  5
F1
100
AcDbEntity
  8
FLAT_PATTERN
 62
   0
100
AcDbCircle
 10
800.64000629499992101046
 20
27.27129861324578996573
 30
-0.00000000000000355271
 40
3.30200000000002669154
100
AcDbArc
 50
90.0
 51
270.0
  0
ARC
  5
F2
100
AcDbEntity
  8
FLAT_PATTERN
 62
   0
100
AcDbCircle
 10
558.64000629499992101046
 20
27.2712986132457828603
 30
-0.00000000000000355271
 40
3.30200000000002669154
100
AcDbArc
 50
-90.0
 51
90.0
  0
ARC
  5
F3
100
AcDbEntity
  8
FLAT_PATTERN
 62
   0
100
AcDbCircle
 10
558.64000629499992101046
 20
27.2712986132457828603
 30
-0.00000000000000355271
 40
3.30200000000002669154
100
AcDbArc
 50
90.0
 51
270.0
  0
ARC
  5
F4
100
AcDbEntity
  8
FLAT_PATTERN
 62
   0
100
AcDbCircle
 10
316.64000629499986416704
 20
27.2712986132457828603
 30
-0.00000000000000355271
 40
3.30199999999997162448
100
AcDbArc
 50
-90.0
 51
90.0
  0
ARC
  5
F5
100
AcDbEntity
  8
FLAT_PATTERN
 62
   0
100
AcDbCircle
 10
316.64000629499986416704
 20
27.2712986132457828603
 30
-0.00000000000000355271
 40
3.30199999999997162448
100
AcDbArc
 50
90.0
 51
270.0
  0
LINE
  5
F6
100
AcDbEntity
  8
FOLD_LINES
 62
   4
100
AcDbLine
 10
0.00000000000022737368
 20
17.67065520662289301868
 30
-0.00000000000000009004
 11
1092.20000000000027284841
 21
17.67065520662289301868
 31
-0.00000000000000009004
  0
LINE
  5
F7
100
AcDbEntity
  8
FOLD_LINES
 62
   4
100
AcDbLine
 10
1092.19999999999981810106
 20
-17.67065520662289657139
 30
-0.00000000000000009004
 11
0.0
 21
-17.67065520662289657139
 31
-0.00000000000000009004
  0
ENDSEC
  0
SECTION
  2
OBJECTS
  0
DICTIONARY
  5
5E
100
AcDbDictionary
  3
ACAD_GROUP
350
5C
  3
ACAD_MLINESTYLE
350
5D
  0
DICTIONARY
  5
5C
100
AcDbDictionary
  0
DICTIONARY
  5
5D
100
AcDbDictionary
  3
STANDARD
350
5B
  0
MLINESTYLE
  5
5B
100
AcDbMlineStyle
  2
STANDARD
 70
   0
  3

 71
   2
 49
0.5
 62
 256
  6
BYLAYER
 49
-0.5
 62
 256
  6
BYLAYER
  0
ENDSEC
  0
EOF
