<svg width="25.4" height="50.8246" saveAspectRatio="xMinYMin meet" viewBox="-12.7 -50.8246 25 51" xmlns="http://www.w3.org/2000/svg" version="1.1">

<g fill = "none" stroke="rgb(0, 0, 0)" stroke-linecap="round" stroke-linejoin="round" stroke-width="0.996562">
  <path id= "1" d=" M -9.525 -0 L 9.525 -0 " />
  <path d="M12.7 -3.175 A3.175 3.175 0 0 1 9.525 3.33067e-14" />  <path id= "3" d=" M 12.7 -47.6496 L 12.7 -3.175 " />
  <path d="M9.525 -50.8246 A3.175 3.175 0 0 1 12.7 -47.6496" />  <path id= "5" d=" M -9.525 -50.8246 L 9.525 -50.8246 " />
  <path d="M-12.7 -47.6496 A3.175 3.175 0 0 1 -9.525 -50.8246" />  <path id= "7" d=" M -12.7 -3.175 L -12.7 -47.6496 " />
  <path d="M-9.525 3.33067e-14 A3.175 3.175 0 0 1 -12.7 -3.175" />  <circle cx ="-1.77636e-15" cy ="-38.9184" r ="3.5" />  <circle cx ="-1.77636e-15" cy ="-38.9184" r ="3.5" />  <path id= "11" d=" M -12.7 -47.6496 L -12.7 -27.0121 " />
  <path d="M-12.7 -47.6496 A3.175 3.175 0 0 1 -9.525 -50.8246" />  <path id= "13" d=" M -9.525 -50.8246 L 9.525 -50.8246 " />
  <path d="M9.525 -50.8246 A3.175 3.175 0 0 1 12.7 -47.6496" />  <path id= "15" d=" M 12.7 -47.6496 L 12.7 -27.0121 " />
  <path id= "16" d=" M -12.7 -27.0121 L 12.7 -27.0121 " />
  <path id= "17" d=" M 12.7 -23.4543 L 12.7 -20.9519 " />
  <path id= "18" d=" M -12.7 -20.9519 L 12.7 -20.9519 " />
  <path id= "19" d=" M -12.7 -23.4543 L -12.7 -20.9519 " />
  <path id= "20" d=" M -12.7 -23.4543 L 12.7 -23.4543 " />
  <path id= "21" d=" M 12.7 -16.1867 L 12.7 -8.1062 " />
  <path id= "22" d=" M -12.7 -8.1062 L 12.7 -8.1062 " />
  <path id= "23" d=" M -12.7 -16.1867 L -12.7 -8.1062 " />
  <path id= "24" d=" M -12.7 -16.1867 L 12.7 -16.1867 " />
  <path id= "25" d=" M -9.525 -0 L 9.525 -0 " />
  <path d="M-9.525 3.33067e-14 A3.175 3.175 0 0 1 -12.7 -3.175" />  <path id= "27" d=" M -12.7 -5.11993 L -12.7 -3.175 " />
  <path id= "28" d=" M -12.7 -5.11993 L 12.7 -5.11993 " />
  <path id= "29" d=" M 12.7 -5.11993 L 12.7 -3.175 " />
  <path d="M12.7 -3.175 A3.175 3.175 0 0 1 9.525 3.33067e-14" />  <path id= "31" d=" M -12.7 -23.4543 L -12.7 -27.0121 " />
  <path id= "32" d=" M -12.7 -27.0121 L 12.7 -27.0121 " />
  <path id= "33" d=" M 12.7 -27.0121 L 12.7 -23.4543 " />
  <path id= "34" d=" M -12.7 -23.4543 L 12.7 -23.4543 " />
  <path id= "35" d=" M -12.7 -16.1867 L 12.7 -16.1867 " />
  <path id= "36" d=" M 12.7 -20.9519 L 12.7 -16.1867 " />
  <path id= "37" d=" M -12.7 -20.9519 L 12.7 -20.9519 " />
  <path id= "38" d=" M -12.7 -16.1867 L -12.7 -20.9519 " />
  <path id= "39" d=" M -12.7 -5.11993 L 12.7 -5.11993 " />
  <path id= "40" d=" M -12.7 -8.1062 L -12.7 -5.11993 " />
  <path id= "41" d=" M -12.7 -8.1062 L 12.7 -8.1062 " />
  <path id= "42" d=" M 12.7 -5.11993 L 12.7 -8.1062 " />
  <path id= "43" d=" M -12.7 -25.2332 L 12.7 -25.2332 " />
  <path id= "44" d=" M -12.7 -18.5693 L 12.7 -18.5693 " />
  <path id= "45" d=" M -12.7 -6.61306 L 12.7 -6.61306 " />
</g>


</svg>
