<svg width="99.7489" height="88.6377" saveAspectRatio="xMinYMin meet" viewBox="-27.1114 -0.000150075 100 89" xmlns="http://www.w3.org/2000/svg" version="1.1">

<g fill = "none" stroke="rgb(0, 0, 0)" stroke-linecap="round" stroke-linejoin="round" stroke-width="0.997489">
  <circle cx ="-16.188" cy ="10.698" r ="3.302" />  <path id= "2" d=" M 2.96024 32.4176 L -22.2909 17.9237 " />
  <path d="M-22.2909 17.9237 A9.59879 9.59879 0 0 1 -17.5125 1.06581e-14" />  <path id= "4" d=" M -17.5125 -7.10543e-15 L 17.5125 -7.10543e-15 " />
  <path d="M17.5125 1.77636e-15 A6.35 6.35 0 0 1 21.6586 1.54042" />  <path id= "6" d=" M 21.6586 1.54042 L 65.2371 39.1077 " />
  <path d="M65.2371 39.1077 A6.35 6.35 0 0 1 67.3717 42.9816" />  <path id= "8" d=" M 67.3717 42.9816 L 72.5326 77.6242 " />
  <path d="M72.5326 77.6242 A9.59879 9.59879 0 0 1 55.5087 84.9915" />  <path id= "10" d=" M 55.5087 84.9915 L 37.4522 62.1517 " />
  <path id= "11" d=" M 35.1517 59.1897 L 37.4522 62.1517 " />
  <path id= "12" d=" M 35.1517 59.1897 L 33.9166 58.125 " />
  <path id= "13" d=" M 33.9166 58.125 L 25.7398 67.6102 " />
  <path d="M25.7398 67.6102 A3.175 3.175 0 0 1 21.262 67.9419" />  <path id= "15" d=" M 21.262 67.9419 L -0.381135 49.2843 " />
  <path d="M-0.381135 49.2843 A3.175 3.175 0 0 1 -0.712853 44.8064" />  <path id= "17" d=" M -0.712853 44.8064 L 7.46393 35.3213 " />
  <path id= "18" d=" M 7.46393 35.3213 L 6.22888 34.2566 " />
  <path id= "19" d=" M 2.96024 32.4176 L 6.22888 34.2566 " />
  <circle cx ="23.028" cy ="25.7764" r ="2.55" />  <circle cx ="41.0639" cy ="41.3244" r ="2.55" />  <circle cx ="61.7562" cy ="77.8906" r ="3.302" />  <path id= "23" d=" M 29.3209 8.14578 L 6.56331 34.5449 " />
  <path id= "24" d=" M 29.3209 8.14578 L 57.5748 32.5023 " />
  <path id= "25" d=" M 57.5748 32.5023 L 34.8172 58.9014 " />
  <path id= "26" d=" M 34.8172 58.9014 L 33.9166 58.125 " />
  <path id= "27" d=" M 33.9166 58.125 L 33.3527 58.7792 " />
  <path id= "28" d=" M 33.3527 58.7792 L 6.9 35.9754 " />
  <path id= "29" d=" M 6.9 35.9754 L 7.46393 35.3213 " />
  <path id= "30" d=" M 7.46393 35.3213 L 6.56331 34.5449 " />
  <circle cx ="41.0639" cy ="41.3244" r ="2.55" />  <circle cx ="23.028" cy ="25.7764" r ="2.55" />  <path id= "33" d=" M 32.0083 60.3387 L 5.55561 37.5349 " />
  <path id= "34" d=" M 32.0083 60.3387 L 30.0307 62.6327 " />
  <path id= "35" d=" M 3.57805 39.8289 L 30.0307 62.6327 " />
  <path id= "36" d=" M 3.57805 39.8289 L 5.55561 37.5349 " />
  <path id= "37" d=" M -0.712853 44.8064 L 2.23366 41.3885 " />
  <path id= "38" d=" M 2.23366 41.3885 L 28.6863 64.1922 " />
  <path id= "39" d=" M 28.6863 64.1922 L 25.7398 67.6102 " />
  <path d="M25.7398 67.6102 A3.175 3.175 0 0 1 21.262 67.9419" />  <path id= "41" d=" M 21.262 67.9419 L -0.381135 49.2843 " />
  <path d="M-0.381135 49.2843 A3.175 3.175 0 0 1 -0.712853 44.8064" />  <circle cx ="61.7562" cy ="77.8906" r ="3.302" />  <path id= "44" d=" M 60.6938 35.1911 L 37.4522 62.1517 " />
  <path id= "45" d=" M 60.6938 35.1911 L 65.2371 39.1077 " />
  <path d="M65.2371 39.1077 A6.35 6.35 0 0 1 67.3717 42.9816" />  <path id= "47" d=" M 67.3717 42.9816 L 72.5326 77.6242 " />
  <path d="M72.5326 77.6242 A9.59879 9.59879 0 0 1 55.5087 84.9915" />  <path id= "49" d=" M 55.5087 84.9915 L 37.4522 62.1517 " />
  <circle cx ="-16.188" cy ="10.698" r ="3.302" />  <path id= "51" d=" M 21.6586 1.54042 L 26.2019 5.457 " />
  <path id= "52" d=" M 26.2019 5.457 L 2.96024 32.4176 " />
  <path id= "53" d=" M 2.96024 32.4176 L -22.2909 17.9237 " />
  <path d="M-22.2909 17.9237 A9.59879 9.59879 0 0 1 -17.5125 1.06581e-14" />  <path id= "55" d=" M -17.5125 -7.10543e-15 L 17.5125 -7.10543e-15 " />
  <path d="M17.5125 1.77636e-15 A6.35 6.35 0 0 1 21.6586 1.54042" />  <path id= "57" d=" M 6.9 35.9754 L 5.55561 37.5349 " />
  <path id= "58" d=" M 33.3527 58.7792 L 6.9 35.9754 " />
  <path id= "59" d=" M 32.0083 60.3387 L 33.3527 58.7792 " />
  <path id= "60" d=" M 32.0083 60.3387 L 5.55561 37.5349 " />
<path d="M3.57805, 39.8289 L30.0307, 62.6327 " />  <path id= "62" d=" M 3.57805 39.8289 L 2.23366 41.3885 " />
  <path id= "63" d=" M 2.23366 41.3885 L 28.6863 64.1922 " />
  <path id= "64" d=" M 28.6863 64.1922 L 30.0307 62.6327 " />
<path d="M35.1517, 59.1897 L37.4522, 62.1517 " />  <path id= "66" d=" M 34.8172 58.9014 L 35.1517 59.1897 " />
  <path id= "67" d=" M 57.5748 32.5023 L 34.8172 58.9014 " />
  <path id= "68" d=" M 60.6938 35.1911 L 57.5748 32.5023 " />
  <path id= "69" d=" M 60.6938 35.1911 L 37.4522 62.1517 " />
  <path id= "70" d=" M 6.22888 34.2566 L 6.56331 34.5449 " />
<path d="M2.96024, 32.4176 L6.22888, 34.2566 " />  <path id= "72" d=" M 26.2019 5.457 L 2.96024 32.4176 " />
  <path id= "73" d=" M 29.3209 8.14578 L 26.2019 5.457 " />
  <path id= "74" d=" M 29.3209 8.14578 L 6.56331 34.5449 " />
  <path id= "75" d=" M 32.6805 59.559 L 6.2278 36.7552 " />
  <path id= "76" d=" M 2.90586 40.6087 L 29.3585 63.4125 " />
  <path id= "77" d=" M 59.1343 33.8467 L 36.1638 60.4929 " />
  <path id= "78" d=" M 27.7614 6.80139 L 4.79084 33.4475 " />
</g>


</svg>
